<?xml version="1.0" encoding="UTF-8" standalone="no"?>
<!DOCTYPE svg PUBLIC "-//W3C//DTD SVG 1.1//EN"
 "http://www.w3.org/Graphics/SVG/1.1/DTD/svg11.dtd">
<!-- Generated by graphviz version 5.0.0 (20220707.1540)
 -->
<!-- Title: UmlClassDiagram Pages: 1 -->
<svg width="1798pt" height="2580pt"
 viewBox="0.00 0.00 1797.82 2580.40" xmlns="http://www.w3.org/2000/svg" xmlns:xlink="http://www.w3.org/1999/xlink">
<g id="graph0" class="graph" transform="scale(1 1) rotate(0) translate(4 2576.4)">
<title>UmlClassDiagram</title>
<polygon fill="white" stroke="transparent" points="-4,4 -4,-2576.4 1793.82,-2576.4 1793.82,4 -4,4"/>
<g id="clust1" class="cluster">
<title>cluster_0</title>
<polygon fill="white" stroke="black" points="16.45,-8 16.45,-2564.4 1727.45,-2564.4 1727.45,-8 16.45,-8"/>
<text text-anchor="middle" x="871.95" y="-16.2" font-family="Times,serif" font-size="14.00">contracts</text>
</g>
<!-- 0 -->
<g id="node1" class="node">
<title>0</title>
<polygon fill="#f2f2f2" stroke="black" points="697.38,-2075.3 697.38,-2242.5 1263.51,-2242.5 1263.51,-2075.3 697.38,-2075.3"/>
<text text-anchor="middle" x="980.45" y="-2225.9" font-family="Times,serif" font-size="14.00">&lt;&lt;Library&gt;&gt;</text>
<text text-anchor="middle" x="980.45" y="-2209.1" font-family="Times,serif" font-size="14.00">Address</text>
<text text-anchor="middle" x="980.45" y="-2192.3" font-family="Times,serif" font-size="14.00">contracts/Address.sol</text>
<polyline fill="none" stroke="black" points="697.38,-2184.1 1263.51,-2184.1 "/>
<text text-anchor="start" x="705.38" y="-2167.5" font-family="Times,serif" font-size="14.00">Internal:</text>
<text text-anchor="start" x="705.38" y="-2150.7" font-family="Times,serif" font-size="14.00"> &#160;&#160;&#160;isContract(account: address): bool</text>
<text text-anchor="start" x="705.38" y="-2133.9" font-family="Times,serif" font-size="14.00"> &#160;&#160;&#160;functionCall(target: address, data: bytes, errorMessage: string): bytes</text>
<text text-anchor="start" x="705.38" y="-2117.1" font-family="Times,serif" font-size="14.00"> &#160;&#160;&#160;functionCallWithValue(target: address, data: bytes, value: uint256): bytes</text>
<text text-anchor="start" x="705.38" y="-2100.3" font-family="Times,serif" font-size="14.00"> &#160;&#160;&#160;functionCallWithValue(target: address, data: bytes, value: uint256, errorMessage: string): bytes</text>
<text text-anchor="start" x="705.38" y="-2083.5" font-family="Times,serif" font-size="14.00"> &#160;&#160;&#160;verifyCallResult(success: bool, returndata: bytes, errorMessage: string): bytes</text>
</g>
<!-- 1 -->
<g id="node2" class="node">
<title>1</title>
<polygon fill="#f2f2f2" stroke="black" points="521.49,-2108.9 521.49,-2208.9 679.41,-2208.9 679.41,-2108.9 521.49,-2108.9"/>
<text text-anchor="middle" x="600.45" y="-2192.3" font-family="Times,serif" font-size="14.00">&lt;&lt;Abstract&gt;&gt;</text>
<text text-anchor="middle" x="600.45" y="-2175.5" font-family="Times,serif" font-size="14.00">Context</text>
<text text-anchor="middle" x="600.45" y="-2158.7" font-family="Times,serif" font-size="14.00">contracts/Context.sol</text>
<polyline fill="none" stroke="black" points="521.49,-2150.5 679.41,-2150.5 "/>
<text text-anchor="start" x="529.49" y="-2133.9" font-family="Times,serif" font-size="14.00">Internal:</text>
<text text-anchor="start" x="529.49" y="-2117.1" font-family="Times,serif" font-size="14.00"> &#160;&#160;&#160;_msgSender(): address</text>
</g>
<!-- 2 -->
<g id="node3" class="node">
<title>2</title>
<polygon fill="#f2f2f2" stroke="black" points="1281.14,-2033.3 1281.14,-2284.5 1719.76,-2284.5 1719.76,-2033.3 1281.14,-2033.3"/>
<text text-anchor="middle" x="1500.45" y="-2267.9" font-family="Times,serif" font-size="14.00">&lt;&lt;Interface&gt;&gt;</text>
<text text-anchor="middle" x="1500.45" y="-2251.1" font-family="Times,serif" font-size="14.00">IERC20</text>
<text text-anchor="middle" x="1500.45" y="-2234.3" font-family="Times,serif" font-size="14.00">contracts/IERC20.sol</text>
<polyline fill="none" stroke="black" points="1281.14,-2226.1 1719.76,-2226.1 "/>
<text text-anchor="start" x="1289.14" y="-2209.5" font-family="Times,serif" font-size="14.00">External:</text>
<text text-anchor="start" x="1289.14" y="-2192.7" font-family="Times,serif" font-size="14.00"> &#160;&#160;&#160;&#160;decimals(): uint8</text>
<text text-anchor="start" x="1289.14" y="-2175.9" font-family="Times,serif" font-size="14.00"> &#160;&#160;&#160;&#160;totalSupply(): uint256</text>
<text text-anchor="start" x="1289.14" y="-2159.1" font-family="Times,serif" font-size="14.00"> &#160;&#160;&#160;&#160;balanceOf(account: address): uint256</text>
<text text-anchor="start" x="1289.14" y="-2142.3" font-family="Times,serif" font-size="14.00"> &#160;&#160;&#160;&#160;transfer(recipient: address, amount: uint256): bool</text>
<text text-anchor="start" x="1289.14" y="-2125.5" font-family="Times,serif" font-size="14.00"> &#160;&#160;&#160;&#160;allowance(owner: address, spender: address): uint256</text>
<text text-anchor="start" x="1289.14" y="-2108.7" font-family="Times,serif" font-size="14.00"> &#160;&#160;&#160;&#160;approve(spender: address, amount: uint256): bool</text>
<text text-anchor="start" x="1289.14" y="-2091.9" font-family="Times,serif" font-size="14.00"> &#160;&#160;&#160;&#160;transferFrom(sender: address, recipient: address, amount: uint256): bool</text>
<text text-anchor="start" x="1289.14" y="-2075.1" font-family="Times,serif" font-size="14.00">Public:</text>
<text text-anchor="start" x="1289.14" y="-2058.3" font-family="Times,serif" font-size="14.00"> &#160;&#160;&#160;&lt;&lt;event&gt;&gt; Transfer(from: address, to: address, value: uint256)</text>
<text text-anchor="start" x="1289.14" y="-2041.5" font-family="Times,serif" font-size="14.00"> &#160;&#160;&#160;&lt;&lt;event&gt;&gt; Approval(owner: address, spender: address, value: uint256)</text>
</g>
<!-- 3 -->
<g id="node4" class="node">
<title>3</title>
<polygon fill="#f2f2f2" stroke="black" points="497.98,-1611.1 497.98,-1887.1 982.91,-1887.1 982.91,-1611.1 497.98,-1611.1"/>
<text text-anchor="middle" x="740.45" y="-1870.5" font-family="Times,serif" font-size="14.00">&lt;&lt;Abstract&gt;&gt;</text>
<text text-anchor="middle" x="740.45" y="-1853.7" font-family="Times,serif" font-size="14.00">Ownable</text>
<text text-anchor="middle" x="740.45" y="-1836.9" font-family="Times,serif" font-size="14.00">contracts/Ownable.sol</text>
<polyline fill="none" stroke="black" points="497.98,-1828.7 982.91,-1828.7 "/>
<text text-anchor="start" x="505.98" y="-1812.1" font-family="Times,serif" font-size="14.00">Private:</text>
<text text-anchor="start" x="505.98" y="-1795.3" font-family="Times,serif" font-size="14.00"> &#160;&#160;_owner: address</text>
<polyline fill="none" stroke="black" points="497.98,-1787.1 982.91,-1787.1 "/>
<text text-anchor="start" x="505.98" y="-1770.5" font-family="Times,serif" font-size="14.00">Internal:</text>
<text text-anchor="start" x="505.98" y="-1753.7" font-family="Times,serif" font-size="14.00"> &#160;&#160;&#160;_checkOwner()</text>
<text text-anchor="start" x="505.98" y="-1736.9" font-family="Times,serif" font-size="14.00"> &#160;&#160;&#160;_transferOwnership(newOwner: address)</text>
<text text-anchor="start" x="505.98" y="-1720.1" font-family="Times,serif" font-size="14.00">Public:</text>
<text text-anchor="start" x="505.98" y="-1703.3" font-family="Times,serif" font-size="14.00"> &#160;&#160;&#160;&lt;&lt;event&gt;&gt; OwnershipTransferred(previousOwner: address, newOwner: address)</text>
<text text-anchor="start" x="505.98" y="-1686.5" font-family="Times,serif" font-size="14.00"> &#160;&#160;&#160;&lt;&lt;modifier&gt;&gt; onlyOwner()</text>
<text text-anchor="start" x="505.98" y="-1669.7" font-family="Times,serif" font-size="14.00"> &#160;&#160;&#160;constructor()</text>
<text text-anchor="start" x="505.98" y="-1652.9" font-family="Times,serif" font-size="14.00"> &#160;&#160;&#160;owner(): address</text>
<text text-anchor="start" x="505.98" y="-1636.1" font-family="Times,serif" font-size="14.00"> &#160;&#160;&#160;renounceOwnership() &lt;&lt;onlyOwner&gt;&gt;</text>
<text text-anchor="start" x="505.98" y="-1619.3" font-family="Times,serif" font-size="14.00"> &#160;&#160;&#160;transferOwnership(newOwner: address) &lt;&lt;onlyOwner&gt;&gt;</text>
</g>
<!-- 3&#45;&gt;1 -->
<g id="edge1" class="edge">
<title>3&#45;&gt;1</title>
<path fill="none" stroke="black" d="M693.34,-1887.31C671.28,-1951.57 645.82,-2025.75 627.13,-2080.18"/>
<polygon fill="none" stroke="black" points="617.19,-2076.79 617.38,-2108.57 637.06,-2083.6 617.19,-2076.79"/>
</g>
<!-- 5 -->
<g id="node5" class="node">
<title>5</title>
<polygon fill="#f2f2f2" stroke="black" points="1206.97,-312.7 1206.97,-563.9 1399.93,-563.9 1399.93,-312.7 1206.97,-312.7"/>
<text text-anchor="middle" x="1303.45" y="-547.3" font-family="Times,serif" font-size="14.00">&lt;&lt;Enum&gt;&gt;</text>
<text text-anchor="middle" x="1303.45" y="-530.5" font-family="Times,serif" font-size="14.00">EscrowStatus</text>
<text text-anchor="middle" x="1303.45" y="-513.7" font-family="Times,serif" font-size="14.00">contracts/PaydeceEscrow.sol</text>
<polyline fill="none" stroke="black" points="1206.97,-505.5 1399.93,-505.5 "/>
<text text-anchor="start" x="1214.97" y="-488.9" font-family="Times,serif" font-size="14.00">Unknown: 0</text>
<text text-anchor="start" x="1214.97" y="-472.1" font-family="Times,serif" font-size="14.00">ACTIVE: 1</text>
<text text-anchor="start" x="1214.97" y="-455.3" font-family="Times,serif" font-size="14.00">CRYPTOS_IN_CUSTODY: 2</text>
<text text-anchor="start" x="1214.97" y="-438.5" font-family="Times,serif" font-size="14.00">FIATCOIN_TRANSFERED: 3</text>
<text text-anchor="start" x="1214.97" y="-421.7" font-family="Times,serif" font-size="14.00">COMPLETED: 4</text>
<text text-anchor="start" x="1214.97" y="-404.9" font-family="Times,serif" font-size="14.00">DELETED: 5</text>
<text text-anchor="start" x="1214.97" y="-388.1" font-family="Times,serif" font-size="14.00">APPEALED: 6</text>
<text text-anchor="start" x="1214.97" y="-371.3" font-family="Times,serif" font-size="14.00">REFUND: 7</text>
<text text-anchor="start" x="1214.97" y="-354.5" font-family="Times,serif" font-size="14.00">RELEASE: 8</text>
<text text-anchor="start" x="1214.97" y="-337.7" font-family="Times,serif" font-size="14.00">CANCEL_MAKER: 9</text>
<text text-anchor="start" x="1214.97" y="-320.9" font-family="Times,serif" font-size="14.00">CANCEL_TAKER: 10</text>
</g>
<!-- 4 -->
<g id="node7" class="node">
<title>4</title>
<polygon fill="#f2f2f2" stroke="black" points="907.6,-600.9 907.6,-1464.9 1699.3,-1464.9 1699.3,-600.9 907.6,-600.9"/>
<text text-anchor="middle" x="1303.45" y="-1448.3" font-family="Times,serif" font-size="14.00">PaydeceEscrow</text>
<text text-anchor="middle" x="1303.45" y="-1431.5" font-family="Times,serif" font-size="14.00">contracts/PaydeceEscrow.sol</text>
<polyline fill="none" stroke="black" points="907.6,-1423.3 1699.3,-1423.3 "/>
<text text-anchor="start" x="915.6" y="-1406.7" font-family="Times,serif" font-size="14.00">Public:</text>
<text text-anchor="start" x="915.6" y="-1389.9" font-family="Times,serif" font-size="14.00"> &#160;&#160;feeTaker: uint256</text>
<text text-anchor="start" x="915.6" y="-1373.1" font-family="Times,serif" font-size="14.00"> &#160;&#160;feeMaker: uint256</text>
<text text-anchor="start" x="915.6" y="-1356.3" font-family="Times,serif" font-size="14.00"> &#160;&#160;feesAvailableNativeCoin: uint256</text>
<text text-anchor="start" x="915.6" y="-1339.5" font-family="Times,serif" font-size="14.00"> &#160;&#160;timeProcess: uint256</text>
<text text-anchor="start" x="915.6" y="-1322.7" font-family="Times,serif" font-size="14.00"> &#160;&#160;escrows: mapping(uint=&gt;Escrow)</text>
<text text-anchor="start" x="915.6" y="-1305.9" font-family="Times,serif" font-size="14.00"> &#160;&#160;whitelistedStablesAddresses: mapping(address=&gt;bool)</text>
<text text-anchor="start" x="915.6" y="-1289.1" font-family="Times,serif" font-size="14.00"> &#160;&#160;feesAvailable: mapping(IERC20=&gt;uint)</text>
<polyline fill="none" stroke="black" points="907.6,-1280.9 1699.3,-1280.9 "/>
<text text-anchor="start" x="915.6" y="-1264.3" font-family="Times,serif" font-size="14.00">Private:</text>
<text text-anchor="start" x="915.6" y="-1247.5" font-family="Times,serif" font-size="14.00"> &#160;&#160;&#160;_releaseEscrow(_orderId: uint) &lt;&lt;nonReentrant&gt;&gt;</text>
<text text-anchor="start" x="915.6" y="-1230.7" font-family="Times,serif" font-size="14.00"> &#160;&#160;&#160;_releaseEscrowNativeCoin(_orderId: uint) &lt;&lt;nonReentrant&gt;&gt;</text>
<text text-anchor="start" x="915.6" y="-1213.9" font-family="Times,serif" font-size="14.00">External:</text>
<text text-anchor="start" x="915.6" y="-1197.1" font-family="Times,serif" font-size="14.00"> &#160;&#160;&#160;&lt;&lt;payable&gt;&gt; createEscrowNativeCoin(_orderId: uint, _taker: address, _value: uint256, _maker_premium: bool, _taker_premium: bool)</text>
<text text-anchor="start" x="915.6" y="-1180.3" font-family="Times,serif" font-size="14.00"> &#160;&#160;&#160;setFeeTaker(_feeTaker: uint256) &lt;&lt;onlyOwner&gt;&gt;</text>
<text text-anchor="start" x="915.6" y="-1163.5" font-family="Times,serif" font-size="14.00"> &#160;&#160;&#160;setFeeMaker(_feeMaker: uint256) &lt;&lt;onlyOwner&gt;&gt;</text>
<text text-anchor="start" x="915.6" y="-1146.7" font-family="Times,serif" font-size="14.00"> &#160;&#160;&#160;setTimeProcess(_timeProcess: uint256) &lt;&lt;onlyOwner&gt;&gt;</text>
<text text-anchor="start" x="915.6" y="-1129.9" font-family="Times,serif" font-size="14.00"> &#160;&#160;&#160;createEscrow(_orderId: uint, _taker: address, _value: uint256, _currency: IERC20, _maker_premium: bool, _taker_premium: bool)</text>
<text text-anchor="start" x="915.6" y="-1113.1" font-family="Times,serif" font-size="14.00"> &#160;&#160;&#160;releaseEscrowOwner(_orderId: uint) &lt;&lt;onlyOwner&gt;&gt;</text>
<text text-anchor="start" x="915.6" y="-1096.3" font-family="Times,serif" font-size="14.00"> &#160;&#160;&#160;releaseEscrowOwnerNativeCoin(_orderId: uint) &lt;&lt;onlyOwner&gt;&gt;</text>
<text text-anchor="start" x="915.6" y="-1079.5" font-family="Times,serif" font-size="14.00"> &#160;&#160;&#160;releaseEscrow(_orderId: uint) &lt;&lt;onlyMaker&gt;&gt;</text>
<text text-anchor="start" x="915.6" y="-1062.7" font-family="Times,serif" font-size="14.00"> &#160;&#160;&#160;releaseEscrowNativeCoin(_orderId: uint) &lt;&lt;onlyMaker&gt;&gt;</text>
<text text-anchor="start" x="915.6" y="-1045.9" font-family="Times,serif" font-size="14.00"> &#160;&#160;&#160;refundMaker(_orderId: uint) &lt;&lt;nonReentrant, onlyOwner&gt;&gt;</text>
<text text-anchor="start" x="915.6" y="-1029.1" font-family="Times,serif" font-size="14.00"> &#160;&#160;&#160;refundMakerNativeCoin(_orderId: uint) &lt;&lt;nonReentrant, onlyOwner&gt;&gt;</text>
<text text-anchor="start" x="915.6" y="-1012.3" font-family="Times,serif" font-size="14.00"> &#160;&#160;&#160;withdrawFees(_currency: IERC20) &lt;&lt;onlyOwner&gt;&gt;</text>
<text text-anchor="start" x="915.6" y="-995.5" font-family="Times,serif" font-size="14.00"> &#160;&#160;&#160;withdrawFeesNativeCoin() &lt;&lt;onlyOwner&gt;&gt;</text>
<text text-anchor="start" x="915.6" y="-978.7" font-family="Times,serif" font-size="14.00"> &#160;&#160;&#160;version(): string</text>
<text text-anchor="start" x="915.6" y="-961.9" font-family="Times,serif" font-size="14.00">Public:</text>
<text text-anchor="start" x="915.6" y="-945.1" font-family="Times,serif" font-size="14.00"> &#160;&#160;&#160;&lt;&lt;event&gt;&gt; EscrowDeposit(orderId: uint, escrow: Escrow)</text>
<text text-anchor="start" x="915.6" y="-928.3" font-family="Times,serif" font-size="14.00"> &#160;&#160;&#160;&lt;&lt;event&gt;&gt; EscrowComplete(orderId: uint, escrow: Escrow)</text>
<text text-anchor="start" x="915.6" y="-911.5" font-family="Times,serif" font-size="14.00"> &#160;&#160;&#160;&lt;&lt;event&gt;&gt; EscrowDisputeResolved(orderId: uint)</text>
<text text-anchor="start" x="915.6" y="-894.7" font-family="Times,serif" font-size="14.00"> &#160;&#160;&#160;&lt;&lt;event&gt;&gt; EscrowCancelMaker(orderId: uint, escrow: Escrow)</text>
<text text-anchor="start" x="915.6" y="-877.9" font-family="Times,serif" font-size="14.00"> &#160;&#160;&#160;&lt;&lt;event&gt;&gt; EscrowCancelMakerOwner(orderId: uint, escrow: Escrow)</text>
<text text-anchor="start" x="915.6" y="-861.1" font-family="Times,serif" font-size="14.00"> &#160;&#160;&#160;&lt;&lt;event&gt;&gt; EscrowCancelTaker(orderId: uint, escrow: Escrow)</text>
<text text-anchor="start" x="915.6" y="-844.3" font-family="Times,serif" font-size="14.00"> &#160;&#160;&#160;&lt;&lt;event&gt;&gt; EscrowCancelTakerOwner(orderId: uint, escrow: Escrow)</text>
<text text-anchor="start" x="915.6" y="-827.5" font-family="Times,serif" font-size="14.00"> &#160;&#160;&#160;&lt;&lt;event&gt;&gt; EscrowMarkAsPaid(orderId: uint, escrow: Escrow)</text>
<text text-anchor="start" x="915.6" y="-810.7" font-family="Times,serif" font-size="14.00"> &#160;&#160;&#160;&lt;&lt;event&gt;&gt; EscrowMarkAsPaidOwner(orderId: uint, escrow: Escrow)</text>
<text text-anchor="start" x="915.6" y="-793.9" font-family="Times,serif" font-size="14.00"> &#160;&#160;&#160;&lt;&lt;modifier&gt;&gt; onlyMaker(_orderId: uint)</text>
<text text-anchor="start" x="915.6" y="-777.1" font-family="Times,serif" font-size="14.00"> &#160;&#160;&#160;&lt;&lt;modifier&gt;&gt; onlyTaker(_orderId: uint)</text>
<text text-anchor="start" x="915.6" y="-760.3" font-family="Times,serif" font-size="14.00"> &#160;&#160;&#160;constructor()</text>
<text text-anchor="start" x="915.6" y="-743.5" font-family="Times,serif" font-size="14.00"> &#160;&#160;&#160;getState(_orderId: uint): EscrowStatus</text>
<text text-anchor="start" x="915.6" y="-726.7" font-family="Times,serif" font-size="14.00"> &#160;&#160;&#160;addStablesAddresses(_addressStableToWhitelist: address) &lt;&lt;onlyOwner&gt;&gt;</text>
<text text-anchor="start" x="915.6" y="-709.9" font-family="Times,serif" font-size="14.00"> &#160;&#160;&#160;delStablesAddresses(_addressStableToWhitelist: address) &lt;&lt;onlyOwner&gt;&gt;</text>
<text text-anchor="start" x="915.6" y="-693.1" font-family="Times,serif" font-size="14.00"> &#160;&#160;&#160;CancelMaker(_orderId: uint256) &lt;&lt;nonReentrant, onlyMaker&gt;&gt;</text>
<text text-anchor="start" x="915.6" y="-676.3" font-family="Times,serif" font-size="14.00"> &#160;&#160;&#160;CancelMakerOwner(_orderId: uint256) &lt;&lt;nonReentrant, onlyOwner&gt;&gt;</text>
<text text-anchor="start" x="915.6" y="-659.5" font-family="Times,serif" font-size="14.00"> &#160;&#160;&#160;CancelTaker(_orderId: uint256) &lt;&lt;nonReentrant, onlyTaker&gt;&gt;</text>
<text text-anchor="start" x="915.6" y="-642.7" font-family="Times,serif" font-size="14.00"> &#160;&#160;&#160;CancelTakerOwner(_orderId: uint256) &lt;&lt;nonReentrant, onlyOwner&gt;&gt;</text>
<text text-anchor="start" x="915.6" y="-625.9" font-family="Times,serif" font-size="14.00"> &#160;&#160;&#160;setMarkAsPaid(_orderId: uint256) &lt;&lt;onlyTaker&gt;&gt;</text>
<text text-anchor="start" x="915.6" y="-609.1" font-family="Times,serif" font-size="14.00"> &#160;&#160;&#160;setMarkAsPaidOwner(_orderId: uint256) &lt;&lt;onlyOwner&gt;&gt;</text>
</g>
<!-- 5&#45;&gt;4 -->
<g id="edge4" class="edge">
<title>5&#45;&gt;4</title>
<path fill="none" stroke="black" d="M1297.82,-564.25C1297.71,-572.07 1297.6,-580.12 1297.5,-588.38"/>
<polygon fill="black" stroke="black" points="1297.5,-588.63 1301.43,-594.67 1297.36,-600.63 1293.43,-594.58 1297.5,-588.63"/>
</g>
<!-- 6 -->
<g id="node6" class="node">
<title>6</title>
<polygon fill="#f2f2f2" stroke="black" points="1329,-41.3 1329,-275.7 1507.89,-275.7 1507.89,-41.3 1329,-41.3"/>
<text text-anchor="middle" x="1418.45" y="-259.1" font-family="Times,serif" font-size="14.00">&lt;&lt;Struct&gt;&gt;</text>
<text text-anchor="middle" x="1418.45" y="-242.3" font-family="Times,serif" font-size="14.00">Escrow</text>
<text text-anchor="middle" x="1418.45" y="-225.5" font-family="Times,serif" font-size="14.00">contracts/PaydeceEscrow.sol</text>
<polyline fill="none" stroke="black" points="1329,-217.3 1507.89,-217.3 "/>
<text text-anchor="start" x="1337" y="-200.7" font-family="Times,serif" font-size="14.00">maker: address</text>
<text text-anchor="start" x="1337" y="-183.9" font-family="Times,serif" font-size="14.00">taker: address</text>
<text text-anchor="start" x="1337" y="-167.1" font-family="Times,serif" font-size="14.00">maker_premium: bool</text>
<text text-anchor="start" x="1337" y="-150.3" font-family="Times,serif" font-size="14.00">taker_premium: bool</text>
<text text-anchor="start" x="1337" y="-133.5" font-family="Times,serif" font-size="14.00">value: uint256</text>
<text text-anchor="start" x="1337" y="-116.7" font-family="Times,serif" font-size="14.00">takerfee: uint256</text>
<text text-anchor="start" x="1337" y="-99.9" font-family="Times,serif" font-size="14.00">makerfee: uint256</text>
<text text-anchor="start" x="1337" y="-83.1" font-family="Times,serif" font-size="14.00">currency: IERC20</text>
<text text-anchor="start" x="1337" y="-66.3" font-family="Times,serif" font-size="14.00">status: EscrowStatus</text>
<text text-anchor="start" x="1337" y="-49.5" font-family="Times,serif" font-size="14.00">created: uint256</text>
</g>
<!-- 6&#45;&gt;2 -->
<g id="edge2" class="edge">
<title>6&#45;&gt;2</title>
<path fill="none" stroke="black" stroke-dasharray="5,2" d="M1507.92,-258.07C1577.79,-342.15 1669.36,-469.84 1708.45,-600.4 1797.45,-897.68 1836.51,-1717.9 1700.45,-1996.8 1695.66,-2006.62 1689.95,-2016.03 1683.55,-2025.03"/>
<polygon fill="black" stroke="black" points="1680.65,-2023.06 1677.49,-2033.17 1686.27,-2027.25 1680.65,-2023.06"/>
</g>
<!-- 6&#45;&gt;5 -->
<g id="edge3" class="edge">
<title>6&#45;&gt;5</title>
<path fill="none" stroke="black" stroke-dasharray="5,2" d="M1370.34,-275.7C1366.6,-284.75 1362.8,-293.93 1359.01,-303.09"/>
<polygon fill="black" stroke="black" points="1355.66,-302.03 1355.07,-312.61 1362.13,-304.71 1355.66,-302.03"/>
</g>
<!-- 6&#45;&gt;4 -->
<g id="edge5" class="edge">
<title>6&#45;&gt;4</title>
<path fill="none" stroke="black" d="M1414.03,-276.01C1413.33,-357.16 1411.38,-467.75 1399.45,-564.4 1398.46,-572.44 1397.39,-580.55 1396.25,-588.71"/>
<polygon fill="black" stroke="black" points="1396.23,-588.81 1399.34,-595.32 1394.53,-600.69 1391.42,-594.18 1396.23,-588.81"/>
</g>
<!-- 4&#45;&gt;2 -->
<g id="edge10" class="edge">
<title>4&#45;&gt;2</title>
<path fill="none" stroke="black" stroke-dasharray="5,2" d="M1673.9,-1464.95C1679.19,-1477 1684.05,-1489.15 1688.45,-1501.4 1707.04,-1553.21 1711.45,-1946.79 1688.45,-1996.8 1683.94,-2006.59 1678.52,-2016.01 1672.4,-2025.04"/>
<polygon fill="black" stroke="black" points="1669.52,-2023.03 1666.58,-2033.21 1675.23,-2027.09 1669.52,-2023.03"/>
</g>
<!-- 4&#45;&gt;3 -->
<g id="edge7" class="edge">
<title>4&#45;&gt;3</title>
<path fill="none" stroke="black" d="M963.57,-1465.06C929.6,-1508.15 896.82,-1549.73 867.33,-1587.15"/>
<polygon fill="none" stroke="black" points="859.01,-1580.74 848.68,-1610.8 875.5,-1593.74 859.01,-1580.74"/>
</g>
<!-- 4&#45;&gt;5 -->
<g id="edge11" class="edge">
<title>4&#45;&gt;5</title>
<path fill="none" stroke="black" stroke-dasharray="5,2" d="M1309.53,-600.63C1309.44,-591.68 1309.33,-582.95 1309.22,-574.47"/>
<polygon fill="black" stroke="black" points="1312.72,-574.2 1309.07,-564.25 1305.72,-574.3 1312.72,-574.2"/>
</g>
<!-- 4&#45;&gt;6 -->
<g id="edge9" class="edge">
<title>4&#45;&gt;6</title>
<path fill="none" stroke="black" d="M1412.53,-600.69C1414.32,-588.49 1415.97,-576.37 1417.45,-564.4 1428.89,-471.71 1431.15,-366.21 1429.42,-286.14"/>
<polygon fill="black" stroke="black" points="1432.92,-285.92 1429.18,-276.01 1425.92,-286.09 1432.92,-285.92"/>
</g>
<!-- 7 -->
<g id="node8" class="node">
<title>7</title>
<polygon fill="#f2f2f2" stroke="black" points="1481.43,-1627.9 1481.43,-1870.3 1679.47,-1870.3 1679.47,-1627.9 1481.43,-1627.9"/>
<text text-anchor="middle" x="1580.45" y="-1853.7" font-family="Times,serif" font-size="14.00">&lt;&lt;Abstract&gt;&gt;</text>
<text text-anchor="middle" x="1580.45" y="-1836.9" font-family="Times,serif" font-size="14.00">ReentrancyGuard</text>
<text text-anchor="middle" x="1580.45" y="-1820.1" font-family="Times,serif" font-size="14.00">contracts/ReentrancyGuard.sol</text>
<polyline fill="none" stroke="black" points="1481.43,-1811.9 1679.47,-1811.9 "/>
<text text-anchor="start" x="1489.43" y="-1795.3" font-family="Times,serif" font-size="14.00">Private:</text>
<text text-anchor="start" x="1489.43" y="-1778.5" font-family="Times,serif" font-size="14.00"> &#160;&#160;_NOT_ENTERED: uint256</text>
<text text-anchor="start" x="1489.43" y="-1761.7" font-family="Times,serif" font-size="14.00"> &#160;&#160;_ENTERED: uint256</text>
<text text-anchor="start" x="1489.43" y="-1744.9" font-family="Times,serif" font-size="14.00"> &#160;&#160;_status: uint256</text>
<polyline fill="none" stroke="black" points="1481.43,-1736.7 1679.47,-1736.7 "/>
<text text-anchor="start" x="1489.43" y="-1720.1" font-family="Times,serif" font-size="14.00">Private:</text>
<text text-anchor="start" x="1489.43" y="-1703.3" font-family="Times,serif" font-size="14.00"> &#160;&#160;&#160;_nonReentrantBefore()</text>
<text text-anchor="start" x="1489.43" y="-1686.5" font-family="Times,serif" font-size="14.00"> &#160;&#160;&#160;_nonReentrantAfter()</text>
<text text-anchor="start" x="1489.43" y="-1669.7" font-family="Times,serif" font-size="14.00">Public:</text>
<text text-anchor="start" x="1489.43" y="-1652.9" font-family="Times,serif" font-size="14.00"> &#160;&#160;&#160;&lt;&lt;modifier&gt;&gt; nonReentrant()</text>
<text text-anchor="start" x="1489.43" y="-1636.1" font-family="Times,serif" font-size="14.00"> &#160;&#160;&#160;constructor()</text>
</g>
<!-- 4&#45;&gt;7 -->
<g id="edge6" class="edge">
<title>4&#45;&gt;7</title>
<path fill="none" stroke="black" d="M1470.67,-1465.06C1489.28,-1513.03 1507.16,-1559.13 1522.89,-1599.7"/>
<polygon fill="none" stroke="black" points="1513.18,-1603.69 1533.82,-1627.87 1532.76,-1596.1 1513.18,-1603.69"/>
</g>
<!-- 8 -->
<g id="node9" class="node">
<title>8</title>
<polygon fill="#f2f2f2" stroke="black" points="1001.28,-1673.9 1001.28,-1824.3 1463.62,-1824.3 1463.62,-1673.9 1001.28,-1673.9"/>
<text text-anchor="middle" x="1232.45" y="-1807.7" font-family="Times,serif" font-size="14.00">&lt;&lt;Library&gt;&gt;</text>
<text text-anchor="middle" x="1232.45" y="-1790.9" font-family="Times,serif" font-size="14.00">SafeERC20</text>
<text text-anchor="middle" x="1232.45" y="-1774.1" font-family="Times,serif" font-size="14.00">contracts/SafeERC20.sol</text>
<polyline fill="none" stroke="black" points="1001.28,-1765.9 1463.62,-1765.9 "/>
<text text-anchor="start" x="1009.28" y="-1749.3" font-family="Times,serif" font-size="14.00">Private:</text>
<text text-anchor="start" x="1009.28" y="-1732.5" font-family="Times,serif" font-size="14.00"> &#160;&#160;&#160;_callOptionalReturn(token: IERC20, data: bytes)</text>
<text text-anchor="start" x="1009.28" y="-1715.7" font-family="Times,serif" font-size="14.00">Internal:</text>
<text text-anchor="start" x="1009.28" y="-1698.9" font-family="Times,serif" font-size="14.00"> &#160;&#160;&#160;safeTransfer(token: IERC20, to: address, value: uint256)</text>
<text text-anchor="start" x="1009.28" y="-1682.1" font-family="Times,serif" font-size="14.00"> &#160;&#160;&#160;safeTransferFrom(token: IERC20, from: address, to: address, value: uint256)</text>
</g>
<!-- 4&#45;&gt;8 -->
<g id="edge8" class="edge">
<title>4&#45;&gt;8</title>
<path fill="none" stroke="black" stroke-dasharray="5,2" d="M1260.59,-1465.06C1253.07,-1540.68 1246.01,-1611.67 1240.85,-1663.63"/>
<polygon fill="black" stroke="black" points="1237.34,-1663.47 1239.84,-1673.77 1244.31,-1664.17 1237.34,-1663.47"/>
</g>
<!-- 8&#45;&gt;0 -->
<g id="edge12" class="edge">
<title>8&#45;&gt;0</title>
<path fill="none" stroke="black" stroke-dasharray="5,2" d="M1186.52,-1824.42C1144.5,-1892.42 1082.2,-1993.23 1037.11,-2066.21"/>
<polygon fill="black" stroke="black" points="1033.98,-2064.62 1031.7,-2074.96 1039.93,-2068.3 1033.98,-2064.62"/>
</g>
<!-- 8&#45;&gt;2 -->
<g id="edge13" class="edge">
<title>8&#45;&gt;2</title>
<path fill="none" stroke="black" stroke-dasharray="5,2" d="M1281.29,-1824.42C1317.99,-1880.27 1369.25,-1958.27 1412.97,-2024.78"/>
<polygon fill="black" stroke="black" points="1410.12,-2026.82 1418.53,-2033.25 1415.97,-2022.98 1410.12,-2026.82"/>
</g>
<!-- 9 -->
<g id="node10" class="node">
<title>9</title>
<polygon fill="#f2f2f2" stroke="black" points="117.14,-2321.5 117.14,-2555.9 555.76,-2555.9 555.76,-2321.5 117.14,-2321.5"/>
<text text-anchor="middle" x="336.45" y="-2539.3" font-family="Times,serif" font-size="14.00">&lt;&lt;Interface&gt;&gt;</text>
<text text-anchor="middle" x="336.45" y="-2522.5" font-family="Times,serif" font-size="14.00">IERC20</text>
<text text-anchor="middle" x="336.45" y="-2505.7" font-family="Times,serif" font-size="14.00">contracts/USDTToken.sol</text>
<polyline fill="none" stroke="black" points="117.14,-2497.5 555.76,-2497.5 "/>
<text text-anchor="start" x="125.14" y="-2480.9" font-family="Times,serif" font-size="14.00">External:</text>
<text text-anchor="start" x="125.14" y="-2464.1" font-family="Times,serif" font-size="14.00"> &#160;&#160;&#160;&#160;totalSupply(): uint256</text>
<text text-anchor="start" x="125.14" y="-2447.3" font-family="Times,serif" font-size="14.00"> &#160;&#160;&#160;&#160;balanceOf(account: address): uint256</text>
<text text-anchor="start" x="125.14" y="-2430.5" font-family="Times,serif" font-size="14.00"> &#160;&#160;&#160;&#160;transfer(recipient: address, amount: uint256): bool</text>
<text text-anchor="start" x="125.14" y="-2413.7" font-family="Times,serif" font-size="14.00"> &#160;&#160;&#160;&#160;allowance(owner: address, spender: address): uint256</text>
<text text-anchor="start" x="125.14" y="-2396.9" font-family="Times,serif" font-size="14.00"> &#160;&#160;&#160;&#160;approve(spender: address, amount: uint256): bool</text>
<text text-anchor="start" x="125.14" y="-2380.1" font-family="Times,serif" font-size="14.00"> &#160;&#160;&#160;&#160;transferFrom(sender: address, recipient: address, amount: uint256): bool</text>
<text text-anchor="start" x="125.14" y="-2363.3" font-family="Times,serif" font-size="14.00">Public:</text>
<text text-anchor="start" x="125.14" y="-2346.5" font-family="Times,serif" font-size="14.00"> &#160;&#160;&#160;&lt;&lt;event&gt;&gt; Transfer(from: address, to: address, value: uint256)</text>
<text text-anchor="start" x="125.14" y="-2329.7" font-family="Times,serif" font-size="14.00"> &#160;&#160;&#160;&lt;&lt;event&gt;&gt; Approval(owner: address, spender: address, value: uint256)</text>
</g>
<!-- 10 -->
<g id="node11" class="node">
<title>10</title>
<polygon fill="#f2f2f2" stroke="black" points="205.16,-2092.1 205.16,-2225.7 367.74,-2225.7 367.74,-2092.1 205.16,-2092.1"/>
<text text-anchor="middle" x="286.45" y="-2209.1" font-family="Times,serif" font-size="14.00">&lt;&lt;Interface&gt;&gt;</text>
<text text-anchor="middle" x="286.45" y="-2192.3" font-family="Times,serif" font-size="14.00">IERC20Metadata</text>
<text text-anchor="middle" x="286.45" y="-2175.5" font-family="Times,serif" font-size="14.00">contracts/USDTToken.sol</text>
<polyline fill="none" stroke="black" points="205.16,-2167.3 367.74,-2167.3 "/>
<text text-anchor="start" x="213.16" y="-2150.7" font-family="Times,serif" font-size="14.00">External:</text>
<text text-anchor="start" x="213.16" y="-2133.9" font-family="Times,serif" font-size="14.00"> &#160;&#160;&#160;&#160;name(): string</text>
<text text-anchor="start" x="213.16" y="-2117.1" font-family="Times,serif" font-size="14.00"> &#160;&#160;&#160;&#160;symbol(): string</text>
<text text-anchor="start" x="213.16" y="-2100.3" font-family="Times,serif" font-size="14.00"> &#160;&#160;&#160;&#160;decimals(): uint8</text>
</g>
<!-- 10&#45;&gt;9 -->
<g id="edge14" class="edge">
<title>10&#45;&gt;9</title>
<path fill="none" stroke="black" stroke-dasharray="5,2" d="M298.3,-2225.73C301.89,-2245.7 305.99,-2268.49 310.14,-2291.54"/>
<polygon fill="none" stroke="black" points="299.84,-2293.57 315.49,-2321.24 320.51,-2289.85 299.84,-2293.57"/>
</g>
<!-- 11 -->
<g id="node12" class="node">
<title>11</title>
<polygon fill="#f2f2f2" stroke="black" points="24.16,-2100.5 24.16,-2217.3 186.74,-2217.3 186.74,-2100.5 24.16,-2100.5"/>
<text text-anchor="middle" x="105.45" y="-2200.7" font-family="Times,serif" font-size="14.00">&lt;&lt;Abstract&gt;&gt;</text>
<text text-anchor="middle" x="105.45" y="-2183.9" font-family="Times,serif" font-size="14.00">Context</text>
<text text-anchor="middle" x="105.45" y="-2167.1" font-family="Times,serif" font-size="14.00">contracts/USDTToken.sol</text>
<polyline fill="none" stroke="black" points="24.16,-2158.9 186.74,-2158.9 "/>
<text text-anchor="start" x="32.16" y="-2142.3" font-family="Times,serif" font-size="14.00">Internal:</text>
<text text-anchor="start" x="32.16" y="-2125.5" font-family="Times,serif" font-size="14.00"> &#160;&#160;&#160;_msgSender(): address</text>
<text text-anchor="start" x="32.16" y="-2108.7" font-family="Times,serif" font-size="14.00"> &#160;&#160;&#160;_msgData(): bytes</text>
</g>
<!-- 12 -->
<g id="node13" class="node">
<title>12</title>
<polygon fill="#f2f2f2" stroke="black" points="44.89,-1501.9 44.89,-1996.3 480.01,-1996.3 480.01,-1501.9 44.89,-1501.9"/>
<text text-anchor="middle" x="262.45" y="-1979.7" font-family="Times,serif" font-size="14.00">ERC20</text>
<text text-anchor="middle" x="262.45" y="-1962.9" font-family="Times,serif" font-size="14.00">contracts/USDTToken.sol</text>
<polyline fill="none" stroke="black" points="44.89,-1954.7 480.01,-1954.7 "/>
<text text-anchor="start" x="52.89" y="-1938.1" font-family="Times,serif" font-size="14.00">Private:</text>
<text text-anchor="start" x="52.89" y="-1921.3" font-family="Times,serif" font-size="14.00"> &#160;&#160;_balances: mapping(address=&gt;uint256)</text>
<text text-anchor="start" x="52.89" y="-1904.5" font-family="Times,serif" font-size="14.00"> &#160;&#160;_allowances: mapping(address=&gt;mapping(address=&gt;uint256))</text>
<text text-anchor="start" x="52.89" y="-1887.7" font-family="Times,serif" font-size="14.00"> &#160;&#160;_totalSupply: uint256</text>
<text text-anchor="start" x="52.89" y="-1870.9" font-family="Times,serif" font-size="14.00"> &#160;&#160;_name: string</text>
<text text-anchor="start" x="52.89" y="-1854.1" font-family="Times,serif" font-size="14.00"> &#160;&#160;_symbol: string</text>
<polyline fill="none" stroke="black" points="44.89,-1845.9 480.01,-1845.9 "/>
<text text-anchor="start" x="52.89" y="-1829.3" font-family="Times,serif" font-size="14.00">Internal:</text>
<text text-anchor="start" x="52.89" y="-1812.5" font-family="Times,serif" font-size="14.00"> &#160;&#160;&#160;_transfer(sender: address, recipient: address, amount: uint256)</text>
<text text-anchor="start" x="52.89" y="-1795.7" font-family="Times,serif" font-size="14.00"> &#160;&#160;&#160;_mint(account: address, amount: uint256)</text>
<text text-anchor="start" x="52.89" y="-1778.9" font-family="Times,serif" font-size="14.00"> &#160;&#160;&#160;_burn(account: address, amount: uint256)</text>
<text text-anchor="start" x="52.89" y="-1762.1" font-family="Times,serif" font-size="14.00"> &#160;&#160;&#160;_approve(owner: address, spender: address, amount: uint256)</text>
<text text-anchor="start" x="52.89" y="-1745.3" font-family="Times,serif" font-size="14.00"> &#160;&#160;&#160;_beforeTokenTransfer(from: address, to: address, amount: uint256)</text>
<text text-anchor="start" x="52.89" y="-1728.5" font-family="Times,serif" font-size="14.00"> &#160;&#160;&#160;_afterTokenTransfer(from: address, to: address, amount: uint256)</text>
<text text-anchor="start" x="52.89" y="-1711.7" font-family="Times,serif" font-size="14.00">Public:</text>
<text text-anchor="start" x="52.89" y="-1694.9" font-family="Times,serif" font-size="14.00"> &#160;&#160;&#160;constructor(name_: string, symbol_: string)</text>
<text text-anchor="start" x="52.89" y="-1678.1" font-family="Times,serif" font-size="14.00"> &#160;&#160;&#160;name(): string</text>
<text text-anchor="start" x="52.89" y="-1661.3" font-family="Times,serif" font-size="14.00"> &#160;&#160;&#160;symbol(): string</text>
<text text-anchor="start" x="52.89" y="-1644.5" font-family="Times,serif" font-size="14.00"> &#160;&#160;&#160;decimals(): uint8</text>
<text text-anchor="start" x="52.89" y="-1627.7" font-family="Times,serif" font-size="14.00"> &#160;&#160;&#160;totalSupply(): uint256</text>
<text text-anchor="start" x="52.89" y="-1610.9" font-family="Times,serif" font-size="14.00"> &#160;&#160;&#160;balanceOf(account: address): uint256</text>
<text text-anchor="start" x="52.89" y="-1594.1" font-family="Times,serif" font-size="14.00"> &#160;&#160;&#160;transfer(recipient: address, amount: uint256): bool</text>
<text text-anchor="start" x="52.89" y="-1577.3" font-family="Times,serif" font-size="14.00"> &#160;&#160;&#160;allowance(owner: address, spender: address): uint256</text>
<text text-anchor="start" x="52.89" y="-1560.5" font-family="Times,serif" font-size="14.00"> &#160;&#160;&#160;approve(spender: address, amount: uint256): bool</text>
<text text-anchor="start" x="52.89" y="-1543.7" font-family="Times,serif" font-size="14.00"> &#160;&#160;&#160;transferFrom(sender: address, recipient: address, amount: uint256): bool</text>
<text text-anchor="start" x="52.89" y="-1526.9" font-family="Times,serif" font-size="14.00"> &#160;&#160;&#160;increaseAllowance(spender: address, addedValue: uint256): bool</text>
<text text-anchor="start" x="52.89" y="-1510.1" font-family="Times,serif" font-size="14.00"> &#160;&#160;&#160;decreaseAllowance(spender: address, subtractedValue: uint256): bool</text>
</g>
<!-- 12&#45;&gt;9 -->
<g id="edge16" class="edge">
<title>12&#45;&gt;9</title>
<path fill="none" stroke="black" stroke-dasharray="5,2" d="M368.09,-1996.67C371.31,-2008.77 374.13,-2020.85 376.45,-2032.8 397.8,-2142.84 390.77,-2173.83 376.45,-2285 376.17,-2287.12 375.88,-2289.26 375.57,-2291.41"/>
<polygon fill="none" stroke="black" points="365.19,-2289.79 370.23,-2321.17 385.86,-2293.49 365.19,-2289.79"/>
</g>
<!-- 12&#45;&gt;10 -->
<g id="edge17" class="edge">
<title>12&#45;&gt;10</title>
<path fill="none" stroke="black" stroke-dasharray="5,2" d="M276.95,-1996.43C278.3,-2019.47 279.61,-2041.75 280.81,-2062.03"/>
<polygon fill="none" stroke="black" points="270.33,-2062.74 282.57,-2092.07 291.29,-2061.5 270.33,-2062.74"/>
</g>
<!-- 12&#45;&gt;11 -->
<g id="edge15" class="edge">
<title>12&#45;&gt;11</title>
<path fill="none" stroke="black" d="M167.61,-1996.43C157.22,-2023.41 147.24,-2049.36 138.42,-2072.26"/>
<polygon fill="none" stroke="black" points="128.55,-2068.67 127.57,-2100.44 148.15,-2076.22 128.55,-2068.67"/>
</g>
<!-- 13 -->
<g id="node14" class="node">
<title>13</title>
<polygon fill="#f2f2f2" stroke="black" points="118.75,-974.5 118.75,-1091.3 406.15,-1091.3 406.15,-974.5 118.75,-974.5"/>
<text text-anchor="middle" x="262.45" y="-1074.7" font-family="Times,serif" font-size="14.00">&lt;&lt;Abstract&gt;&gt;</text>
<text text-anchor="middle" x="262.45" y="-1057.9" font-family="Times,serif" font-size="14.00">ERC20Burnable</text>
<text text-anchor="middle" x="262.45" y="-1041.1" font-family="Times,serif" font-size="14.00">contracts/USDTToken.sol</text>
<polyline fill="none" stroke="black" points="118.75,-1032.9 406.15,-1032.9 "/>
<text text-anchor="start" x="126.75" y="-1016.3" font-family="Times,serif" font-size="14.00">Public:</text>
<text text-anchor="start" x="126.75" y="-999.5" font-family="Times,serif" font-size="14.00"> &#160;&#160;&#160;burn(amount: uint256)</text>
<text text-anchor="start" x="126.75" y="-982.7" font-family="Times,serif" font-size="14.00"> &#160;&#160;&#160;burnFrom(account: address, amount: uint256)</text>
</g>
<!-- 13&#45;&gt;11 -->
<g id="edge18" class="edge">
<title>13&#45;&gt;11</title>
<path fill="none" stroke="black" d="M223.7,-1091.55C169.01,-1176.76 71.79,-1343.34 35.45,-1501.4 -13.89,-1715.98 -9.36,-1781.23 35.45,-1996.8 40.77,-2022.41 50.39,-2048.95 60.82,-2072.91"/>
<polygon fill="none" stroke="black" points="51.31,-2077.36 73.48,-2100.14 70.35,-2068.51 51.31,-2077.36"/>
</g>
<!-- 13&#45;&gt;12 -->
<g id="edge19" class="edge">
<title>13&#45;&gt;12</title>
<path fill="none" stroke="black" d="M262.45,-1091.44C262.45,-1174 262.45,-1331.57 262.45,-1471.67"/>
<polygon fill="none" stroke="black" points="251.95,-1471.73 262.45,-1501.73 272.95,-1471.73 251.95,-1471.73"/>
</g>
<!-- 14 -->
<g id="node15" class="node">
<title>14</title>
<polygon fill="#f2f2f2" stroke="black" points="24.31,-396.7 24.31,-479.9 504.59,-479.9 504.59,-396.7 24.31,-396.7"/>
<text text-anchor="middle" x="264.45" y="-463.3" font-family="Times,serif" font-size="14.00">ERC20PresetFixedSupply</text>
<text text-anchor="middle" x="264.45" y="-446.5" font-family="Times,serif" font-size="14.00">contracts/USDTToken.sol</text>
<polyline fill="none" stroke="black" points="24.31,-438.3 504.59,-438.3 "/>
<text text-anchor="start" x="32.31" y="-421.7" font-family="Times,serif" font-size="14.00">Public:</text>
<text text-anchor="start" x="32.31" y="-404.9" font-family="Times,serif" font-size="14.00"> &#160;&#160;&#160;constructor(name: string, symbol: string, initialSupply: uint256, owner: address)</text>
</g>
<!-- 14&#45;&gt;13 -->
<g id="edge20" class="edge">
<title>14&#45;&gt;13</title>
<path fill="none" stroke="black" d="M264.31,-480.03C263.99,-575.23 263.18,-814.08 262.74,-944.15"/>
<polygon fill="none" stroke="black" points="252.24,-944.31 262.64,-974.34 273.24,-944.38 252.24,-944.31"/>
</g>
<!-- 15 -->
<g id="node16" class="node">
<title>15</title>
<polygon fill="#f2f2f2" stroke="black" points="183.16,-108.5 183.16,-208.5 345.74,-208.5 345.74,-108.5 183.16,-108.5"/>
<text text-anchor="middle" x="264.45" y="-191.9" font-family="Times,serif" font-size="14.00">USDTToken</text>
<text text-anchor="middle" x="264.45" y="-175.1" font-family="Times,serif" font-size="14.00">contracts/USDTToken.sol</text>
<polyline fill="none" stroke="black" points="183.16,-166.9 345.74,-166.9 "/>
<text text-anchor="start" x="191.16" y="-150.3" font-family="Times,serif" font-size="14.00">Public:</text>
<text text-anchor="start" x="191.16" y="-133.5" font-family="Times,serif" font-size="14.00"> &#160;&#160;&#160;decimals(): uint8</text>
<text text-anchor="start" x="191.16" y="-116.7" font-family="Times,serif" font-size="14.00"> &#160;&#160;&#160;constructor()</text>
</g>
<!-- 15&#45;&gt;14 -->
<g id="edge21" class="edge">
<title>15&#45;&gt;14</title>
<path fill="none" stroke="black" d="M264.45,-208.53C264.45,-252.25 264.45,-316.79 264.45,-366.18"/>
<polygon fill="none" stroke="black" points="253.95,-366.44 264.45,-396.44 274.95,-366.44 253.95,-366.44"/>
</g>
</g>
</svg>
